<?xml version="1.0" encoding="utf-8"?>
<!-- Generator: Adobe Illustrator 16.0.4, SVG Export Plug-In . SVG Version: 6.00 Build 0)  -->
<!DOCTYPE svg PUBLIC "-//W3C//DTD SVG 1.1//EN" "http://www.w3.org/Graphics/SVG/1.1/DTD/svg11.dtd">
<svg version="1.1" id="Layer_1" xmlns="http://www.w3.org/2000/svg" xmlns:xlink="http://www.w3.org/1999/xlink" x="0px" y="0px"
	 width="107px" height="107px" viewBox="0 0 107 107" enable-background="new 0 0 107 107" xml:space="preserve">
<path fill-rule="evenodd" clip-rule="evenodd" fill="#F1F2F2" d="M53.5,0C23.952,0,0,23.953,0,53.5C0,83.046,23.952,107,53.5,107
	c29.547,0,53.5-23.953,53.5-53.5C107,23.953,83.047,0,53.5,0z M61.985,78.087c-3.426,0.726-8.565,0.865-12.224,0.129
	c-2.699-0.542-5.05-1.527-7.153-2.859c-0.62-0.393-1.556-0.979-2.405-0.91c-1.505,0.119-2.37,2.182-3.057,3.25
	c-1.431,0-2.861,0-4.291,0c0-5.938,0-11.877,0-17.816c1.389-0.171,2.819-0.301,4.291-0.39C38,67.05,42.968,71.417,49.891,72.82
	c3.741,0.759,8.434,0.58,11.444-0.715c2.989-1.285,5.095-4.324,4.682-8.322c-0.175-1.69-1.525-2.906-2.796-3.576
	c-2.115-1.115-4.822-1.56-7.543-2.017c-10.941-1.836-22.104-3.163-22.497-15.735c-0.29-9.227,6.187-13.705,14.76-14.109
	c5.562-0.263,9.694,0.521,13.33,2.275c1.089,0.526,2.438,1.584,3.706,1.496c1.589-0.11,2.333-1.748,3.316-2.731
	c1.148,0,2.297,0,3.445,0c0,5.635,0,11.271,0,16.906c-1.465,0.182-2.922,0.373-4.355,0.585c-0.875-6.198-3.764-10.185-9.169-12.094
	c-5.341-1.887-14.718-1.527-16.906,2.926c-0.726,1.476-0.773,3.838-0.064,5.202c1.355,2.609,5.632,3.751,8.974,4.421
	c3.965,0.795,7.661,1.275,11.184,2.211c6.914,1.837,12.744,5.084,12.744,13.98C74.145,72.205,69.166,76.566,61.985,78.087z"/>
</svg>
